<svg width="242" height="59" viewBox="0 0 242 59" fill="none" xmlns="http://www.w3.org/2000/svg">
<path d="M137.019 54.9758L141.275 47.5499C144.711 48.4309 147.856 49.6224 151.087 49.9734C155.967 50.5 158.924 48.0461 159.745 43.5062C159.849 42.929 159.828 42.335 159.894 41.2515C157.567 43.9518 155.028 45.3019 151.911 45.5146C145.14 45.9905 139.641 42.6826 137.019 36.5867C134.02 29.6469 135.54 21.5392 140.888 16.7867C144.791 13.3202 149.407 12.1253 154.481 13.8096C156.258 14.3969 157.788 15.6897 159.527 16.7192C159.596 15.9732 159.686 14.9775 159.787 13.8771H171.77C171.801 14.3936 171.856 14.8897 171.86 15.3657C171.86 24.091 171.912 32.813 171.825 41.5384C171.781 43.5497 171.491 45.5486 170.959 47.4925C169.432 53.2678 165.529 56.8828 159.586 58.2127C152.708 59.7519 145.979 59.0296 139.499 56.2989C138.688 55.9479 137.923 55.4584 137.019 54.9758ZM159.877 29.4376C159.894 27.5905 159.285 25.7894 158.145 24.3138C156.067 21.3671 151.7 21.4245 149.435 24.2632C148.68 25.1798 148.145 26.2491 147.868 27.393C147.591 28.537 147.58 29.7268 147.835 30.8755C148.562 34.4805 150.896 36.6373 153.951 36.5766C157.006 36.5158 159.284 34.1733 159.804 30.6021C159.856 30.2106 159.852 29.8191 159.877 29.4376Z" fill="#EC603F"/>
<path d="M8.78552 18.4105L6.54479 20.4154L0.695312 14.7516L14.867 1.52344L28.9626 15.2241L23.5391 20.4323L21.9183 19.1429C21.7451 19.2341 21.5719 19.2847 21.5719 19.3387C21.5442 22.8525 21.3018 26.3865 21.5719 29.88C21.8455 33.3161 24.3911 35.2502 27.5946 35.0241C30.7981 34.7979 32.9488 32.4183 32.9592 28.9484C32.98 21.185 32.9592 13.4217 32.9592 5.63465V3.50479H45.6002V5.47939C45.6002 13.1381 45.4513 20.8036 45.6383 28.459C45.853 37.1674 40.3672 44.1612 30.1159 45.3966C24.6716 46.0514 19.4109 45.2211 14.9017 41.8322C10.7458 38.6999 8.94485 34.4064 8.79939 29.421C8.70242 25.9274 8.78552 22.417 8.78552 18.4105Z" fill="#EC603F"/>
<path d="M50.3125 58.2555V13.9097H62.5586L62.8565 16.5493C64.9829 15.513 67.0124 14.0076 69.2913 13.5114C75.8195 12.0566 82.0327 15.1721 85.0907 21.0014C89.2467 28.9302 86.8986 39.0462 79.8231 43.4443C76.3598 45.6079 72.4913 46.2391 68.5778 45.0982C66.5795 44.5143 64.8271 43.1371 62.853 42.0604C62.7954 42.4972 62.7608 42.9366 62.7491 43.3768C62.7491 47.7378 62.7006 52.0988 62.7491 56.4564C62.7491 57.7829 62.4374 58.3466 60.9274 58.3027C57.4572 58.1846 53.9559 58.2555 50.3125 58.2555ZM74.6074 29.3555C74.5589 28.8053 74.5451 28.1336 74.4273 27.4754C73.9355 24.7109 71.7987 22.6081 69.2566 22.3482C66.486 22.068 64.1483 23.5059 63.1197 26.2231C62.6442 27.3932 62.4404 28.6513 62.523 29.9072C62.6057 31.1632 62.9726 32.3857 63.5976 33.4869C64.2717 34.7469 65.4251 35.6997 66.811 36.1413C68.1968 36.5828 69.7049 36.4782 71.0125 35.8497C73.6965 34.5671 74.5035 32.1908 74.6074 29.3555Z" fill="#EC603F"/>
<path d="M189.385 44.8093H176.938V1.10156H189.312V16.8815L189.966 17.2561C190.208 16.7762 190.503 16.3235 190.846 15.906C195.106 11.6766 203.66 12.2639 207.089 17.0063C208.625 19.194 209.45 21.7814 209.458 24.4322C209.596 31.031 209.517 37.6299 209.517 44.2322C209.483 44.426 209.426 44.6153 209.347 44.7958H197.225C197.191 44.1208 197.135 43.4153 197.121 42.72C197.038 37.2451 197.007 31.7669 196.862 26.292C196.817 24.6516 196.148 23.2137 194.309 22.6972C191.681 21.9547 189.599 23.4601 189.461 26.3933C189.308 29.9678 189.364 33.5491 189.346 37.127C189.374 39.6349 189.385 42.1394 189.385 44.8093Z" fill="#EC603F"/>
<path d="M213.211 22.4178V13.7628C214.596 13.7628 215.954 13.7122 217.308 13.7797C218.392 13.8337 218.953 13.6008 219.116 12.389C219.393 10.2961 219.916 8.23704 220.345 6.11719H229.669V13.719H237.128V22.4212C235.206 22.4212 233.27 22.4785 231.341 22.4009C230.043 22.3469 229.634 22.833 229.658 24.0583C229.72 27.3022 229.658 30.5461 229.686 33.79C229.686 34.9411 229.752 36.2373 231.366 36.1968C232.882 36.1563 233.052 34.8736 233.097 33.736C233.068 32.8731 232.982 32.0128 232.841 31.1605C235.314 31.1605 237.714 31.066 240.09 31.2449C240.54 31.2786 241.156 32.3419 241.274 33.0035C242.226 38.4382 240.211 44.5041 232.152 45.4324C229.977 45.6525 227.78 45.5489 225.637 45.1252C220.906 44.2307 217.862 40.737 217.672 36.0618C217.502 32.2069 217.523 28.3419 217.609 24.487C217.644 22.9005 217.194 22.1849 215.49 22.4043C214.731 22.4542 213.97 22.4587 213.211 22.4178Z" fill="#EC603F"/>
<path d="M103.384 13.8857V18.8579L103.648 18.9456C103.9 18.5001 104.157 18.0545 104.403 17.5954C105.975 14.7397 110.003 12.657 113.237 13.1295C113.643 13.1869 114.276 13.754 114.276 14.0949C114.353 17.6055 114.321 21.1161 114.321 24.6638C112.59 24.6638 111.014 24.5862 109.438 24.6807C106.366 24.8596 104.288 26.6014 104.084 29.5786C103.807 33.6293 103.862 37.7239 103.786 41.7948C103.769 42.7366 103.786 43.6784 103.786 44.7585H91.5156V13.8857H103.384Z" fill="#EC603F"/>
<path d="M118.523 13.8359H130.787V44.8202H118.523V13.8359Z" fill="#EC603F"/>
<path d="M124.678 0.924114C126.397 0.899815 128.088 1.35036 129.554 2.22362C132.848 4.31972 132.294 9.18023 128.696 10.905C126.593 11.9176 124.342 11.9176 122.115 11.408C119.085 10.6991 117.506 8.6368 117.686 5.87913C117.852 3.32061 119.802 1.44729 122.77 1.0355C123.393 0.951118 124.034 0.957868 124.664 0.924114C124.72 0.809352 124.637 1.0355 124.678 0.924114Z" fill="#EC603F"/>
</svg>
